<?xml version="1.0" encoding="UTF-8" standalone="no"?>
<!-- Created with Inkscape (http://www.inkscape.org/) -->

<svg
   xmlns:dc="http://purl.org/dc/elements/1.1/"
   xmlns:cc="http://creativecommons.org/ns#"
   xmlns:rdf="http://www.w3.org/1999/02/22-rdf-syntax-ns#"
   xmlns:svg="http://www.w3.org/2000/svg"
   xmlns="http://www.w3.org/2000/svg"
   xmlns:sodipodi="http://sodipodi.sourceforge.net/DTD/sodipodi-0.dtd"
   xmlns:inkscape="http://www.inkscape.org/namespaces/inkscape"
   width="144.49777mm"
   height="144.4978mm"
   viewBox="0 0 511.99998 512.00009"
   id="svg2"
   version="1.1"
   inkscape:version="0.91 r13725"
   sodipodi:docname="rage.svg">
  <defs
     id="defs4" />
  <sodipodi:namedview
     id="base"
     pagecolor="#ffffff"
     bordercolor="#000000"
     borderopacity="1"
     inkscape:pageopacity="1"
     inkscape:pageshadow="2"
     inkscape:zoom="0.98994949"
     inkscape:cx="429.15978"
     inkscape:cy="243.90434"
     inkscape:document-units="px"
     inkscape:current-layer="layer1"
     showgrid="false"
     inkscape:window-width="1920"
     inkscape:window-height="1031"
     inkscape:window-x="0"
     inkscape:window-y="27"
     inkscape:window-maximized="1"
     fit-margin-top="0"
     fit-margin-left="0"
     fit-margin-right="0"
     fit-margin-bottom="0" />
  <metadata
     id="metadata7">
    <rdf:RDF>
      <cc:Work
         rdf:about="">
        <dc:format>image/svg+xml</dc:format>
        <dc:type
           rdf:resource="http://purl.org/dc/dcmitype/StillImage" />
        <dc:title></dc:title>
      </cc:Work>
    </rdf:RDF>
  </metadata>
  <g
     inkscape:label="Layer 1"
     inkscape:groupmode="layer"
     id="layer1"
     transform="translate(-118.77597,-245.49774)">
    <path
       style="fill:#000000"
       d="m 118.77597,501.49771 0,-255.99997 256,0 256,0 0,255.99997 0,256.00014 -256,0 -256,0 0,-256.00014 z m 337,208.1027 0,-25.8973 6.5914,-1.1479 c 46.7902,-8.1482 85.9695,-46.9536 94.5784,-93.676 l 1.1759,-6.3815 25.3271,0 25.3272,0 0,-80 0,-79.99997 -25.3865,0 -25.3864,0 -0.7058,-4.70636 c -1.1867,-7.91323 -5.4487,-21.3439 -9.5514,-30.09894 -15.5724,-33.2306 -46.8147,-57.88842 -82.4699,-65.08902 l -9,-1.81756 -0.2669,-25.64406 -0.2669,-25.64406 -79.9662,0 -79.9663,0 -0.2669,25.64406 -0.2668,25.64406 -8.5,1.73091 c -29.7486,6.05788 -56.4044,24.07027 -74.0298,50.02487 -8.4024,12.37304 -14.5835,28.18867 -18.4493,47.2061 l -0.559,2.75 -24.981,0 -24.9809,0 0,79.98287 0,79.9828 25.1916,0.2672 25.1916,0.2671 1.2683,6.8746 c 4.0749,22.0871 15.2092,42.7318 32.2251,59.7502 17.3331,17.3357 38.291,28.5521 61.3734,32.8461 l 6.75,1.2556 0,25.8868 0,25.8868 80,0 80,0 0,-25.8974 z m -141,-62.8587 0,-69.7561 30.756,-30.744 30.7561,-30.7441 30.2439,30.2562 30.244,30.2561 0,70.244 0,70.244 -61,0 -61,0 0,-69.7561 z m 80.2568,47.4737 c 17.6824,-8.7391 27.7302,-27.5196 24.7394,-46.241 -2.6726,-16.7303 -13.9906,-30.3167 -29.575,-35.5029 -5.4775,-1.8228 -8.2729,-2.132 -16.3433,-1.8079 -8.5133,0.342 -10.5626,0.7981 -16.3218,3.6334 -17.2809,8.5074 -26.7935,24.6432 -25.4683,43.2007 1.3001,18.2061 13.1089,33.4029 30.3681,39.0809 4.4822,1.4745 8.084,1.857 15.4562,1.641 8.7904,-0.2574 10.2562,-0.5997 17.1447,-4.0042 z m -233.2568,-191.7177 0,-61 70.2561,0 70.2562,0 30.2438,30.2561 30.2439,30.256 -30.756,30.744 -30.7559,30.7439 -69.7441,0 -69.744,0 0,-61 z m 73.5399,42.4577 c 12.3604,-3.1986 23.1015,-12.3103 28.8313,-24.4577 2.6053,-5.5232 3.1252,-7.9506 3.4598,-16.1534 0.5904,-14.4734 -3.1424,-24.1206 -13.1417,-33.9634 -21.1777,-20.8463 -56.9612,-14.3456 -70.3693,12.7837 -12.0696,24.4212 1.674,54.7077 28.0529,61.8193 6.8879,1.8569 15.9239,1.8458 23.167,-0.028 z m 184.4601,-11.9577 -30.4877,-30.5 30.4877,-30.5 30.4877,-30.5 69.7561,0 69.7562,0 0,61 0,61 -69.7562,0 -69.7561,0 -30.4877,-30.5 z m 120.8751,11.616 c 8.3863,-2.6101 13.7628,-5.9825 19.9247,-12.4978 24.1792,-25.566 9.5867,-67.4007 -25.6823,-73.6274 -13.1802,-2.327 -27.8842,2.6061 -38.0058,12.7504 -13.4764,13.5069 -16.7069,33.4511 -8.2129,50.7049 9.3167,18.925 32.092,28.8586 51.9763,22.6699 z m -195.6313,-86.372 -30.2438,-30.25607 0,-69.74395 0,-69.74395 61,0 61,0 0,69.75615 0,69.75615 -30.2561,30.24387 c -16.6408,16.6341 -30.4811,30.2438 -30.7561,30.2438 -0.2751,0 -14.1099,-13.6152 -30.744,-30.256 z m 39.6317,-64.72037 c 8.0681,-1.53009 16.095,-5.8613 22.2581,-12.01022 25.8215,-25.76211 12.1365,-68.50544 -24.0903,-75.24251 -12.4548,-2.31621 -26.2516,1.9971 -36.5789,11.43567 -32.728,29.91153 -5.2737,84.10171 38.4111,75.81706 z"
       id="path3428"
       inkscape:connector-curvature="0" />
  </g>
</svg>
