# Blender v2.79 (sub 0) OBJ File: ''
# www.blender.org
mtllib arrow.mtl
o Cube_Cube.002
v -0.178294 1.568559 0.429514
v -0.178294 3.568559 0.429514
v -0.178294 1.568559 -0.374815
v -0.178294 3.568559 -0.374815
v 0.406373 1.568559 0.429514
v 0.406373 3.568559 0.429514
v 0.406373 1.568559 -0.374815
v 0.406373 3.568559 -0.374815
vn -1.0000 0.0000 0.0000
vn 0.0000 0.0000 -1.0000
vn 1.0000 0.0000 0.0000
vn 0.0000 0.0000 1.0000
vn 0.0000 -1.0000 0.0000
vn 0.0000 1.0000 0.0000
usemtl None
s off
f 1//1 2//1 4//1 3//1
f 3//2 4//2 8//2 7//2
f 7//3 8//3 6//3 5//3
f 5//4 6//4 2//4 1//4
f 3//5 7//5 5//5 1//5
f 8//6 4//6 2//6 6//6
o Cone_Cone.002
v 0.109429 2.052908 1.003976
v 0.304519 2.052804 0.984762
v 0.492112 2.052495 0.927857
v 0.664999 2.051994 0.835448
v 0.816536 2.051320 0.711087
v 0.940899 2.050498 0.559553
v 1.033308 2.049560 0.386668
v 1.090214 2.048542 0.199078
v 1.109429 2.047484 0.003991
v 1.090214 2.046426 -0.191097
v 1.033309 2.045408 -0.378687
v 0.940899 2.044470 -0.551571
v 0.816536 2.043648 -0.703106
v 0.664999 2.042974 -0.827467
v 0.492112 2.042472 -0.919875
v 0.304519 2.042164 -0.976780
v 0.109429 2.042059 -0.995995
v -0.085662 2.042164 -0.976780
v -0.273255 2.042472 -0.919875
v -0.446142 2.042974 -0.827466
v -0.597678 2.043648 -0.703105
v -0.722041 2.044470 -0.551571
v -0.814451 2.045408 -0.378686
v 0.109429 0.047513 0.014839
v -0.871357 2.046426 -0.191096
v -0.890571 2.047484 0.003992
v -0.871356 2.048542 0.199079
v -0.814450 2.049560 0.386670
v -0.722040 2.050498 0.559554
v -0.597677 2.051320 0.711088
v -0.446140 2.051994 0.835449
v -0.273253 2.052495 0.927857
v -0.085660 2.052804 0.984762
vn 0.0878 -0.4406 0.8934
vn 0.2599 -0.4408 0.8591
vn 0.4220 -0.4412 0.7920
vn 0.5680 -0.4417 0.6945
vn 0.6921 -0.4424 0.5704
vn 0.7896 -0.4432 0.4244
vn 0.8567 -0.4441 0.2623
vn 0.8910 -0.4450 0.0902
vn 0.8910 -0.4460 -0.0853
vn 0.8567 -0.4469 -0.2575
vn 0.7896 -0.4478 -0.4196
vn 0.6921 -0.4486 -0.5655
vn 0.5680 -0.4492 -0.6896
vn 0.4220 -0.4498 -0.7871
vn 0.2599 -0.4501 -0.8543
vn 0.0878 -0.4503 -0.8885
vn -0.0878 -0.4503 -0.8885
vn -0.2599 -0.4501 -0.8543
vn -0.4220 -0.4498 -0.7871
vn -0.5680 -0.4492 -0.6896
vn -0.6921 -0.4486 -0.5655
vn -0.7896 -0.4478 -0.4196
vn -0.8567 -0.4469 -0.2575
vn -0.8910 -0.4460 -0.0853
vn -0.8910 -0.4450 0.0902
vn -0.8567 -0.4441 0.2623
vn -0.7896 -0.4432 0.4244
vn -0.6921 -0.4424 0.5704
vn -0.5680 -0.4417 0.6945
vn -0.4220 -0.4412 0.7920
vn -0.2599 -0.4408 0.8591
vn -0.0878 -0.4406 0.8934
vn -0.0000 1.0000 -0.0054
usemtl None
s off
f 9//7 32//7 10//7
f 10//8 32//8 11//8
f 11//9 32//9 12//9
f 12//10 32//10 13//10
f 13//11 32//11 14//11
f 14//12 32//12 15//12
f 15//13 32//13 16//13
f 16//14 32//14 17//14
f 17//15 32//15 18//15
f 18//16 32//16 19//16
f 19//17 32//17 20//17
f 20//18 32//18 21//18
f 21//19 32//19 22//19
f 22//20 32//20 23//20
f 23//21 32//21 24//21
f 24//22 32//22 25//22
f 25//23 32//23 26//23
f 26//24 32//24 27//24
f 27//25 32//25 28//25
f 28//26 32//26 29//26
f 29//27 32//27 30//27
f 30//28 32//28 31//28
f 31//29 32//29 33//29
f 33//30 32//30 34//30
f 34//31 32//31 35//31
f 35//32 32//32 36//32
f 36//33 32//33 37//33
f 37//34 32//34 38//34
f 38//35 32//35 39//35
f 39//36 32//36 40//36
f 40//37 32//37 41//37
f 41//38 32//38 9//38
f 9//39 10//39 11//39 12//39 13//39 14//39 15//39 16//39 17//39 18//39 19//39 20//39 21//39 22//39 23//39 24//39 25//39 26//39 27//39 28//39 29//39 30//39 31//39 33//39 34//39 35//39 36//39 37//39 38//39 39//39 40//39 41//39
