# Blender v2.79 (sub 0) OBJ File: 'free lowpoly trees pack.blend'
# www.blender.org
mtllib trees.mtl
o LowPoly_Tree_01_Plane_Plane.000
v -5.477103 0.452269 -2.435754
v -5.424617 0.369293 -2.164148
v -5.719684 0.382070 -2.346155
v -5.679976 0.402840 -1.669259
v -5.448361 0.344390 -1.696989
v -5.455813 0.402438 -1.496868
v -5.366495 0.834982 -1.391025
v -5.618888 0.808967 -1.252065
v -5.419756 0.583979 -1.364688
v -5.653625 1.334754 -2.319993
v -5.616339 1.505492 -1.999363
v -5.425939 1.315601 -2.183796
v -5.472228 1.061292 -1.419542
v -5.673880 1.064572 -1.309915
v -5.836876 0.576649 -2.529811
v -5.805616 1.085895 -2.497912
v -5.829837 0.837171 -2.596866
v -6.017246 0.820229 -2.483782
v -5.844509 1.332042 -2.356489
v -5.894457 1.478823 -2.118215
v -5.909868 0.369542 -1.895890
v -5.719194 0.442349 -1.915888
v -5.712525 0.550741 -1.361115
v -6.005041 0.488967 -1.376226
v -5.920267 0.362245 -1.555247
v -6.058904 1.193195 -2.324268
v -6.159784 0.416490 -1.920473
v -6.064049 0.319342 -2.058846
v -5.853157 0.872188 -1.280256
v -6.077684 1.161619 -1.521837
v -6.135811 0.886784 -1.472615
v -6.163732 1.323007 -2.107355
v -6.103559 1.411759 -1.863447
v -6.134235 0.571456 -2.453243
v -6.130694 0.418387 -1.486445
v -6.265541 0.742495 -2.294244
v -6.418056 0.747436 -2.046765
v -6.332703 0.999647 -2.191784
v -6.308038 0.547900 -2.072115
v -6.192963 0.642035 -1.442485
v -5.981249 0.291530 -2.224633
v -6.209307 0.417973 -2.248059
v -6.325565 0.721761 -1.649644
v -6.340701 0.977992 -1.702362
v -6.190648 1.261874 -1.711276
v -6.381059 1.069167 -1.943673
v -6.437536 0.806443 -1.835429
v -6.326533 0.577758 -1.824390
v -6.248132 0.472745 -1.635464
v -5.964512 0.689929 -1.326699
v -6.005023 0.392601 -2.422667
v -6.090843 0.348088 -1.715500
v -5.890329 0.311759 -2.064672
v -5.852203 1.509996 -1.780945
v -5.715618 0.362377 -2.113580
v -5.588962 1.425934 -1.681438
v -5.613932 0.876591 -2.596130
v -5.516192 0.397393 -1.920577
v -5.652905 0.670019 -2.589895
v -5.185103 0.784631 -2.253170
v -5.451910 1.006006 -2.438540
v -5.186823 1.057007 -2.060639
v -5.348440 0.651606 -2.480907
v -5.234685 0.502739 -2.290367
v -5.086976 0.808475 -1.934075
v -5.182561 0.981662 -1.711162
v -5.174781 0.709888 -1.522322
v -5.307266 0.382128 -1.782986
v -5.125436 0.558047 -1.735215
v -5.235183 0.449378 -1.551497
v -5.161624 0.597425 -2.029098
v -5.289952 0.447439 -1.942010
v -5.383797 1.371331 -1.933182
v -5.336809 1.248540 -1.737221
v -5.673430 1.295605 -1.481432
v -5.928761 1.385315 -1.591791
v -5.849361 1.274812 -1.465189
v -5.735968 -0.486716 -1.934027
v -5.728482 -0.486716 -1.684317
v -5.941119 -0.486716 -1.731809
v -6.014754 -0.486716 -1.933536
v -5.456934 -0.486716 -1.936979
v -5.526138 -0.486716 -1.732875
v -5.729947 -0.486716 -2.185429
v -5.522832 -0.486716 -2.139399
v -5.946369 -0.486716 -2.140410
v -5.940153 -0.424222 -1.939101
v -5.866899 -0.410524 -1.802407
v -5.831083 -0.303260 -1.836586
v -5.880700 -0.306766 -1.945870
v -5.729840 -0.421738 -1.757562
v -5.595284 -0.410816 -1.807183
v -5.630135 -0.302998 -1.852296
v -5.733164 -0.310873 -1.811915
v -5.532622 -0.416489 -1.943609
v -5.587941 -0.402838 -2.079224
v -5.619127 -0.292247 -2.053382
v -5.578377 -0.313056 -1.950821
v -5.725900 -0.418363 -2.131763
v -5.883744 -0.401945 -2.088234
v -5.842804 -0.286182 -2.066958
v -5.720571 -0.292766 -2.097401
v -5.841459 -0.181058 -1.957261
v -5.816962 -0.173379 -1.872682
v -5.811936 -0.045490 -1.888434
v -5.828975 -0.043129 -1.955503
v -5.733153 -0.176414 -1.853854
v -5.661659 -0.174122 -1.885279
v -5.676684 -0.041771 -1.886217
v -5.744589 -0.044538 -1.863854
v -5.621469 -0.175799 -1.956097
v -5.643180 -0.165400 -2.028770
v -5.660698 -0.038762 -2.015510
v -5.647492 -0.033941 -1.948493
v -5.718954 -0.171439 -2.075602
v -5.812382 -0.167474 -2.048463
v -5.797636 -0.042244 -2.034811
v -5.724917 -0.037657 -2.053012
v -5.726447 0.088399 -2.022898
v -5.800116 0.087351 -2.020556
v -5.818113 0.200486 -2.026150
v -5.729718 0.232399 -2.021914
v -5.830180 0.094654 -1.950051
v -5.852162 0.223793 -1.952885
v -5.824032 0.092740 -1.888517
v -5.757971 0.097495 -1.865168
v -5.759573 0.228414 -1.844289
v -5.840127 0.193821 -1.878592
v -5.689904 0.090042 -1.881750
v -5.658025 0.095417 -1.937144
v -5.668667 0.225958 -1.921783
v -5.694538 0.203250 -1.853835
v -5.806928 0.305747 -1.813836
v -5.873151 0.278918 -1.829106
v -5.629856 0.315812 -1.871120
v -5.643591 0.295910 -1.809729
v -5.745008 0.303774 -1.937363
v -5.679753 0.360387 -1.977695
v -5.667318 0.318873 -2.045163
v -5.879803 0.316106 -2.013179
v -5.858277 0.291540 -2.067632
v -5.669380 0.089833 -1.993107
v -5.662901 0.205091 -1.993826
v -5.943484 0.397489 -2.087909
v -5.928710 0.386834 -2.135751
v -5.688052 0.320599 -1.801764
v -5.679797 0.364803 -1.876605
v -5.510715 0.396146 -1.788557
v -5.517849 0.384220 -1.737723
v -5.615804 0.292815 -2.029883
v -5.624874 0.308315 -1.970338
v -5.799881 0.347012 -1.879557
v -5.885033 0.303325 -1.884387
v -5.941499 0.379794 -1.767297
v -5.882196 0.403437 -1.773384
v -5.795652 0.322198 -2.068411
v -5.805780 0.356888 -2.011628
v -5.547110 0.382520 -2.102530
v -5.542402 0.386182 -2.057557
v -5.556533 0.423597 -1.787687
v -5.461653 0.479798 -1.735618
v -5.419953 0.463961 -1.742043
v -5.890104 0.426003 -2.094153
v -5.885653 0.415628 -2.142777
v -5.948092 0.491036 -2.180717
v -5.953889 0.493632 -2.143172
v -5.921303 0.367527 -1.724451
v -5.872096 0.381692 -1.722520
v -5.914753 0.459375 -1.643530
v -5.957298 0.446835 -1.645086
v -5.556719 0.395009 -1.727149
v -5.462216 0.456000 -1.683951
v -5.591838 0.402653 -2.113158
v -5.591163 0.422191 -2.057731
v -5.425602 0.450958 -1.695815
v -5.539272 0.488945 -2.104721
v -5.498109 0.465296 -2.102883
v -5.507078 0.465198 -2.140090
v -5.545395 0.480362 -2.149340
v -5.982358 0.463639 -2.171021
v -5.993807 0.467097 -2.133200
v -5.928769 0.471683 -1.683300
v -5.973756 0.452943 -1.679964
vn 0.1543 -0.9362 -0.3158
vn -0.2059 -0.9419 0.2655
vn 0.4831 -0.0107 0.8755
vn 0.3502 0.8093 -0.4717
vn 0.4609 0.2891 0.8391
vn -0.0580 -0.7035 -0.7083
vn -0.5055 0.3610 -0.7837
vn 0.0853 0.8562 -0.5096
vn 0.3311 -0.9221 -0.2004
vn 0.1327 -0.7783 0.6137
vn -0.3903 0.4115 -0.8236
vn -0.2074 -0.8623 0.4619
vn -0.5346 0.2572 0.8050
vn -0.4977 0.8473 -0.1855
vn -0.2493 -0.0016 -0.9684
vn -0.0344 -0.8233 0.5665
vn -0.8514 -0.0134 -0.5244
vn -0.7923 -0.3758 -0.4808
vn -0.5267 -0.3028 0.7943
vn -0.4757 -0.8749 -0.0908
vn -0.7231 0.0980 0.6838
vn -0.8363 0.4518 0.3106
vn -0.9130 0.3070 0.2687
vn -0.8997 -0.4348 0.0385
vn -0.8425 0.0604 0.5353
vn -0.7971 -0.3223 0.5106
vn -0.8569 -0.2405 0.4559
vn -0.4771 0.2163 0.8518
vn -0.6396 -0.7631 0.0932
vn -0.6349 0.4881 -0.5989
vn -0.5882 -0.5295 -0.6113
vn -0.6337 0.2065 -0.7455
vn -0.5329 0.1894 -0.8247
vn -0.6355 0.2425 -0.7330
vn -0.1677 -0.9503 0.2625
vn -0.2306 -0.3235 -0.9177
vn -0.4164 0.6773 -0.6065
vn -0.4921 -0.2045 -0.8462
vn -0.5168 0.6763 -0.5249
vn -0.0382 -0.9884 0.1467
vn -0.3516 0.9352 -0.0424
vn 0.1832 -0.6142 -0.7676
vn 0.2901 -0.9532 -0.0858
vn 0.2699 -0.9624 -0.0317
vn 0.2208 0.9505 0.2188
vn 0.3469 -0.8307 0.4354
vn -0.0652 0.3744 -0.9250
vn -0.2173 -0.9686 -0.1206
vn 0.0090 -0.9964 -0.0845
vn 0.0191 -0.5674 -0.8233
vn 0.7234 0.4016 -0.5616
vn 0.7234 0.4015 -0.5616
vn 0.6941 0.2818 -0.6624
vn 0.5206 -0.4938 -0.6966
vn 0.9112 0.4049 0.0762
vn 0.6840 0.4293 0.5897
vn 0.6964 -0.7176 -0.0084
vn 0.9513 -0.2676 -0.1530
vn 0.9769 0.0190 0.2129
vn 0.7079 -0.6771 -0.2010
vn 0.3454 -0.9245 0.1610
vn 0.8302 -0.0731 -0.5527
vn 0.6189 -0.7779 0.1089
vn 0.5914 0.7395 0.3216
vn 0.3812 -0.8610 -0.3367
vn 0.5601 0.2576 -0.7874
vn 0.1691 -0.9180 -0.3586
vn 0.2295 -0.9533 0.1963
vn 0.5491 0.5963 0.5856
vn 0.4528 0.8734 0.1796
vn 0.0997 -0.9610 -0.2581
vn 0.5375 0.7995 -0.2682
vn 0.7675 0.5862 -0.2594
vn 0.8613 0.4972 0.1050
vn 0.8574 0.5052 0.0985
vn 0.0775 -0.5969 0.7986
vn 0.4076 0.5438 0.7336
vn 0.0572 -0.4059 0.9121
vn 0.0464 -0.9902 0.1317
vn 0.0092 -0.0319 -0.9994
vn -0.1978 -0.3196 0.9267
vn -0.0030 -0.2452 0.9695
vn 0.0004 -0.2394 0.9709
vn 0.0997 -0.9948 -0.0183
vn -0.4206 -0.8275 -0.3719
vn -0.7178 -0.6882 0.1054
vn -0.6837 -0.7288 0.0368
vn -0.7178 -0.6909 -0.0861
vn -0.7718 0.6346 -0.0405
vn -0.5660 -0.8106 0.1503
vn -0.6342 -0.7719 -0.0443
vn -0.7682 0.2518 0.5886
vn -0.6895 0.3837 0.6142
vn -0.8544 -0.3986 0.3332
vn -0.8761 -0.4821 -0.0073
vn -0.9788 0.1554 -0.1336
vn -0.9533 0.1859 -0.2379
vn -0.9323 -0.2766 0.2331
vn -0.6647 0.2656 0.6983
vn -0.5361 0.7343 0.4164
vn -0.4253 -0.1348 0.8949
vn -0.5476 0.5592 0.6225
vn -0.8115 0.5021 -0.2988
vn -0.8540 -0.2154 -0.4736
vn -0.9105 -0.2086 -0.3569
vn -0.7852 0.6023 0.1439
vn -0.4399 0.5215 0.7311
vn -0.1526 -0.9517 -0.2663
vn -0.4401 0.8212 0.3632
vn -0.5534 0.1284 0.8229
vn 0.0911 -0.8825 -0.4614
vn -0.3513 0.3935 0.8496
vn 0.1590 -0.9871 -0.0163
vn -0.0306 -0.9467 0.3206
vn -0.1892 -0.2400 -0.9522
vn -0.0593 0.9947 -0.0845
vn 0.1545 0.5104 -0.8459
vn 0.3482 -0.8738 0.3395
vn 0.3658 -0.8605 0.3547
vn -0.0614 0.2077 0.9763
vn 0.0502 0.8244 0.5637
vn -0.1933 -0.9108 0.3649
vn -0.2586 -0.9546 -0.1478
vn 0.0037 0.5961 0.8029
vn 0.0488 0.8273 0.5597
vn 0.1206 0.8703 -0.4775
vn -0.2992 -0.8722 0.3870
vn 0.2470 0.4592 -0.8533
vn 0.7234 0.4015 -0.5617
vn 0.9279 0.2191 -0.3017
vn 0.9655 -0.1409 -0.2189
vn 0.9390 -0.2091 -0.2731
vn 0.5516 -0.0296 0.8336
vn 0.6951 -0.6970 -0.1762
vn 0.7021 0.4021 0.5876
vn 0.6066 -0.2260 0.7622
vn 0.6910 0.4543 0.5623
vn 0.6939 -0.6975 -0.1789
vn 0.9472 0.2009 0.2501
vn 0.8892 -0.2491 0.3838
vn 0.2652 -0.9233 0.2777
vn 0.3102 -0.5991 0.7382
vn 0.3308 -0.0908 -0.9393
vn 0.2902 -0.3857 -0.8758
vn 0.4654 0.5388 -0.7022
vn 0.5143 0.6028 0.6100
vn 0.4340 0.3094 0.8461
vn 0.2620 0.5961 -0.7589
vn -0.4449 0.3097 -0.8403
vn -0.0265 0.7448 0.6667
vn -0.0000 -1.0000 -0.0000
vn -0.8237 0.4189 0.3822
vn 0.2880 0.4377 0.8517
vn 0.8866 0.3455 -0.3076
vn -0.2266 0.2598 -0.9387
vn 0.1856 0.6351 -0.7498
vn 0.6248 0.7463 0.2295
vn -0.1487 0.7424 0.6533
vn -0.6856 0.7010 -0.1964
vn -0.1576 0.6070 -0.7789
vn 0.6822 0.6984 -0.2164
vn 0.1621 0.7512 0.6398
vn -0.5985 0.7678 0.2287
vn -0.9623 0.0771 0.2609
vn 0.3566 0.0743 0.9313
vn 0.9571 0.1733 -0.2323
vn -0.2611 0.1424 -0.9548
vn 0.3450 0.2671 -0.8998
vn 0.8304 0.4102 0.3769
vn -0.2313 0.3953 0.8890
vn -0.8847 0.3961 -0.2459
vn 0.0151 -0.0167 -0.9997
vn -0.9135 -0.1637 -0.3725
vn -0.3270 -0.1489 0.9332
vn 0.9071 -0.0178 0.4206
vn 0.5050 0.1622 -0.8478
vn 0.8780 0.1202 0.4633
vn -0.2738 0.0882 0.9577
vn -0.9393 0.1161 -0.3230
vn -0.0954 -0.4772 0.8736
vn 0.8691 -0.4830 0.1070
vn -0.7505 0.4577 -0.4768
vn -0.8716 -0.4410 -0.2139
vn 0.9987 0.0198 -0.0477
vn 0.1440 -0.1904 0.9711
vn -0.9819 -0.1653 0.0927
vn 0.4225 -0.0043 -0.9063
vn 0.4753 0.1959 -0.8577
vn -0.9832 -0.0508 0.1756
vn 0.2758 0.0157 0.9611
vn 0.9742 0.0991 -0.2029
vn 0.8840 0.0523 0.4646
vn -0.3370 -0.0259 0.9411
vn -0.9250 0.0152 -0.3798
vn -0.1433 0.1670 -0.9755
vn -0.9294 0.2721 -0.2494
vn -0.2070 0.2872 0.9352
vn 0.8468 0.3005 0.4389
vn 0.4407 0.2033 -0.8743
vn -0.2444 0.1922 -0.9504
vn 0.9241 0.2557 -0.2839
vn 0.3488 0.2948 0.8896
vn -0.9088 0.2516 0.3329
vn -0.7727 -0.6322 -0.0565
vn -0.8017 0.5330 0.2706
vn -0.0375 -0.4036 0.9142
vn 0.4498 0.3087 -0.8381
vn 0.6097 -0.7851 -0.1093
vn 0.9019 -0.3793 0.2065
vn 0.2300 0.3898 0.8917
vn 0.1499 -0.4018 -0.9034
vn -0.3337 0.7043 -0.6266
vn 0.8186 0.5203 -0.2432
vn 0.1664 -0.3507 -0.9216
vn -0.3954 0.4827 0.7815
vn 0.7982 -0.5858 0.1407
vn 0.8219 0.4000 0.4056
vn -0.9254 -0.3789 0.0118
vn -0.2905 0.5774 -0.7630
vn 0.1555 0.4615 -0.8734
vn 0.7526 0.6584 -0.0096
vn 0.1638 -0.6587 0.7344
vn -0.6114 0.7186 0.3314
vn -0.0687 -0.5932 -0.8021
vn -0.8128 -0.5805 0.0487
vn 0.2034 -0.4740 -0.8567
vn 0.1509 -0.7124 0.6854
vn -0.6006 0.7192 0.3493
vn 0.3647 0.4965 0.7877
vn 0.3626 0.4035 -0.8400
vn 0.7495 0.6398 -0.1699
vn -0.7767 0.5313 -0.3383
vn 0.8140 0.5197 0.2595
vn -0.0769 -0.5976 0.7981
vn -0.2724 0.5541 0.7866
vn 0.3169 0.8810 0.3513
vn 0.4517 0.8746 -0.1761
vn -0.6104 0.7661 -0.2012
vn -0.3096 0.8861 0.3450
vn -0.1345 0.4828 0.8653
vn 0.0918 -0.6416 0.7615
vn -0.7718 -0.6217 -0.1338
vn 0.6242 -0.7726 -0.1162
vn 0.0789 -0.3826 -0.9205
vn 0.2445 0.3983 0.8841
vn 0.8418 0.5394 -0.0213
vn -0.8466 0.5245 -0.0899
vn -0.3297 0.6615 -0.6736
vn 0.8542 -0.5062 -0.1190
vn -0.7737 -0.5923 0.2249
vn 0.0322 -0.4318 -0.9014
usemtl Material.003
s 1
f 1//1 2//1 3//1
f 4//2 5//2 6//2
f 7//3 8//3 9//3
f 10//4 11//4 12//4
f 13//5 14//5 8//5
f 3//6 15//6 1//6
f 16//7 17//7 18//7
f 10//8 19//8 20//8
f 21//9 22//9 4//9
f 23//10 24//10 25//10
f 16//11 26//11 19//11
f 21//12 27//12 28//12
f 29//13 30//13 31//13
f 20//14 32//14 33//14
f 18//15 15//15 34//15
f 35//16 25//16 24//16
f 36//17 37//17 38//17
f 39//18 37//18 36//18
f 24//19 40//19 35//19
f 41//20 28//20 42//20
f 43//21 31//21 44//21
f 44//22 45//22 46//22
f 46//23 47//23 44//23
f 37//24 48//24 47//24
f 43//25 44//25 47//25
f 35//26 40//26 49//26
f 43//27 49//27 40//27
f 40//28 50//28 31//28
f 27//29 42//29 28//29
f 26//30 38//30 32//30
f 51//31 42//31 34//31
f 18//32 34//32 36//32
f 26//33 36//33 38//33
f 26//34 18//34 36//34
f 35//35 52//35 25//35
f 34//36 15//36 51//36
f 26//37 32//37 20//37
f 18//38 17//38 15//38
f 20//39 19//39 26//39
f 41//40 53//40 28//40
f 54//41 20//41 33//41
f 3//42 51//42 15//42
f 55//43 41//43 3//43
f 55//44 53//44 41//44
f 56//45 11//45 54//45
f 25//46 4//46 23//46
f 16//47 57//47 17//47
f 22//48 58//48 4//48
f 3//49 2//49 55//49
f 59//50 1//50 15//50
f 60//51 61//52 62//52
f 63//53 61//53 60//53
f 64//54 1//54 63//54
f 65//55 62//55 66//55
f 66//56 7//56 67//56
f 68//57 69//57 70//57
f 71//58 65//58 69//58
f 65//59 67//59 69//59
f 72//60 69//60 68//60
f 68//61 70//61 5//61
f 63//62 60//62 64//62
f 2//63 64//63 71//63
f 73//64 56//64 74//64
f 64//65 2//65 1//65
f 57//66 61//66 63//66
f 58//67 72//67 68//67
f 2//68 72//68 58//68
f 13//69 74//69 56//69
f 56//70 73//70 11//70
f 68//71 5//71 58//71
f 73//72 12//72 11//72
f 62//73 12//73 73//73
f 74//74 62//74 73//74
f 66//75 62//75 74//75
f 23//76 6//76 9//76
f 75//77 14//77 13//77
f 23//78 9//78 8//78
f 58//79 55//79 2//79
f 59//80 17//80 57//80
f 29//81 23//81 8//81
f 50//82 23//82 29//82
f 23//83 50//83 24//83
f 25//84 52//84 21//84
f 51//85 41//85 42//85
f 27//86 39//86 42//86
f 48//87 39//87 27//87
f 49//88 48//88 27//88
f 46//89 33//89 32//89
f 35//90 49//90 52//90
f 52//91 49//91 27//91
f 31//92 43//92 40//92
f 30//93 45//93 44//93
f 47//94 48//94 43//94
f 48//95 37//95 39//95
f 37//96 47//96 46//96
f 46//97 38//97 37//97
f 49//98 43//98 48//98
f 31//99 30//99 44//99
f 76//100 33//100 45//100
f 24//101 50//101 40//101
f 30//102 76//102 45//102
f 32//103 38//103 46//103
f 36//104 34//104 42//104
f 36//105 42//105 39//105
f 33//106 46//106 45//106
f 30//107 77//107 76//107
f 27//108 21//108 52//108
f 76//109 54//109 33//109
f 50//110 29//110 31//110
f 51//111 3//111 41//111
f 30//112 29//112 14//112 77//112
f 25//113 21//113 4//113
f 21//114 28//114 53//114
f 15//115 17//115 59//115
f 54//116 11//116 20//116
f 19//117 10//117 16//117
f 21//118 53//118 55//118
f 22//119 21//119 55//119
f 8//120 14//120 29//120
f 76//121 56//121 54//121
f 55//122 58//122 22//122
f 4//123 58//123 5//123
f 14//124 75//124 77//124
f 76//125 75//125 56//125
f 20//126 11//126 10//126
f 4//127 6//127 23//127
f 16//128 10//128 61//128
f 61//52 12//129 62//52
f 60//130 62//130 65//130
f 71//131 64//131 60//131
f 71//132 60//132 65//132
f 9//133 67//133 7//133
f 2//134 71//134 72//134
f 7//135 66//135 13//135
f 9//136 70//136 67//136
f 66//137 74//137 13//137
f 69//138 72//138 71//138
f 65//139 66//139 67//139
f 69//140 67//140 70//140
f 5//141 70//141 6//141
f 6//142 70//142 9//142
f 57//143 63//143 59//143
f 59//144 63//144 1//144
f 12//145 61//145 10//145
f 13//146 56//146 75//146
f 7//147 13//147 8//147
f 57//148 16//148 61//148
f 26//149 16//149 18//149
f 77//150 75//150 76//150
usemtl Material.002
f 78//151 79//151 80//151 81//151
f 78//151 82//151 83//151 79//151
f 78//151 84//151 85//151 82//151
f 78//151 81//151 86//151 84//151
f 87//152 88//152 89//152 90//152
f 91//153 92//153 93//153 94//153
f 95//154 96//154 97//154 98//154
f 99//155 100//155 101//155 102//155
f 85//156 84//156 99//156 96//156
f 83//157 82//157 95//157 92//157
f 80//158 79//158 91//158 88//158
f 86//159 81//159 87//159 100//159
f 84//160 86//160 100//160 99//160
f 82//161 85//161 96//161 95//161
f 79//162 83//162 92//162 91//162
f 81//163 80//163 88//163 87//163
f 103//164 104//164 105//164 106//164
f 107//165 108//165 109//165 110//165
f 111//166 112//166 113//166 114//166
f 115//167 116//167 117//167 118//167
f 96//168 99//168 102//168 97//168
f 92//169 95//169 98//169 93//169
f 88//170 91//170 94//170 89//170
f 100//171 87//171 90//171 101//171
f 119//172 120//172 121//172 122//172
f 120//173 123//173 124//173 121//173
f 125//174 126//174 127//174 128//174
f 129//175 130//175 131//175 132//175
f 112//176 115//176 118//176 113//176
f 108//177 111//177 114//177 109//177
f 104//178 107//178 110//178 105//178
f 116//179 103//179 106//179 117//179
f 128//180 127//180 133//180 134//180
f 132//181 131//181 135//181 136//181
f 122//182 137//182 138//182 139//182
f 121//183 124//183 140//183 141//183
f 130//184 142//184 143//184 131//184
f 126//185 129//185 132//185 127//185
f 123//186 125//186 128//186 124//186
f 142//187 119//187 122//187 143//187
f 113//188 118//188 119//188 142//188
f 106//189 105//189 125//189 123//189
f 110//190 109//190 129//190 126//190
f 114//191 113//191 142//191 130//191
f 109//192 114//192 130//192 129//192
f 105//193 110//193 126//193 125//193
f 117//194 106//194 123//194 120//194
f 118//195 117//195 120//195 119//195
f 101//196 90//196 103//196 116//196
f 89//197 94//197 107//197 104//197
f 93//198 98//198 111//198 108//198
f 97//199 102//199 115//199 112//199
f 102//200 101//200 116//200 115//200
f 98//201 97//201 112//201 111//201
f 94//202 93//202 108//202 107//202
f 90//203 89//203 104//203 103//203
f 141//204 140//204 144//204 145//204
f 137//205 127//205 146//205 147//205
f 127//206 132//206 136//206 146//206
f 131//207 137//207 147//207 135//207
f 136//208 135//208 148//208 149//208
f 131//209 143//209 150//209 151//209
f 137//210 131//210 151//210 138//210
f 143//211 122//211 139//211 150//211
f 152//212 153//212 154//212 155//212
f 137//213 122//213 156//213 157//213
f 122//214 121//214 141//214 156//214
f 124//215 137//215 157//215 140//215
f 151//216 150//216 158//216 159//216
f 127//217 137//217 152//217 133//217
f 124//218 128//218 134//218 153//218
f 137//219 124//219 153//219 152//219
f 148//220 160//220 161//220 162//220
f 163//221 164//221 165//221 166//221
f 167//222 168//222 169//222 170//222
f 160//223 171//223 172//223 161//223
f 150//224 139//224 173//224 158//224
f 153//225 134//225 167//225 154//225
f 156//226 141//226 145//226 164//226
f 134//227 133//227 168//227 167//227
f 147//228 146//228 171//228 160//228
f 138//229 151//229 159//229 174//229
f 135//230 147//230 160//230 148//230
f 157//231 156//231 164//231 163//231
f 139//232 138//232 174//232 173//232
f 133//233 152//233 155//233 168//233
f 146//234 136//234 149//234 171//234
f 140//235 157//235 163//235 144//235
f 161//236 172//236 175//236 162//236
f 176//237 177//237 178//237 179//237
f 166//238 165//238 180//238 181//238
f 182//239 183//239 170//239 169//239
f 144//240 163//240 166//240 181//240
f 171//241 149//241 175//241 172//241
f 145//242 144//242 181//242 180//242
f 149//243 148//243 162//243 175//243
f 164//244 145//244 180//244 165//244
f 174//245 159//245 177//245 176//245
f 168//246 155//246 182//246 169//246
f 173//247 174//247 176//247 179//247
f 155//248 154//248 183//248 182//248
f 159//249 158//249 178//249 177//249
f 154//250 167//250 170//250 183//250
f 158//251 173//251 179//251 178//251
